<?xml version="1.0" encoding="utf-8"?>
<svg version="1.1" xmlns:xlink="http://www.w3.org/1999/xlink" width="102px" height="25px" xmlns="http://www.w3.org/2000/svg">
  <g transform="matrix(1 0 0 1 -750 -877 )">
    <path d="M 751 881  A 3 3 0 0 1 754 878 L 848 878  A 3 3 0 0 1 851 881 L 851 898  A 3 3 0 0 1 848 901 L 754 901  A 3 3 0 0 1 751 898 L 751 881  Z " fill-rule="nonzero" fill="#ebecf1" stroke="none" fill-opacity="0" />
    <path d="M 750.5 881  A 3.5 3.5 0 0 1 754 877.5 L 848 877.5  A 3.5 3.5 0 0 1 851.5 881 L 851.5 898  A 3.5 3.5 0 0 1 848 901.5 L 754 901.5  A 3.5 3.5 0 0 1 750.5 898 L 750.5 881  Z " stroke-width="1" stroke="#759ac6" fill="none" stroke-opacity="0.996078431372549" />
  </g>
</svg>