<?xml version="1.0" encoding="utf-8"?>
<svg version="1.1" xmlns:xlink="http://www.w3.org/1999/xlink" width="34px" height="19px" xmlns="http://www.w3.org/2000/svg">
  <g transform="matrix(1 0 0 1 -1517 -41 )">
    <path d="M 1.36635514018691 0.224731182795855  C 0.794392523364498 -0.071505376344021  0.0953271028037269 0.32688172043017  0.0953271028037269 0.949999999999856  L 0.0953271028037269 10.4193548387096  C 0.0953271028037269 10.7155913978494  0.254205607476636 10.981182795699  0.519003115264817 11.1344086021505  L 14.5003115264797 18.8876344086023  C 15.0616822429907 19.204301075269  15.7713395638629 18.8059139784948  15.7713395638629 18.1725806451613  L 15.7713395638629 8.59086021505387  C 15.7713395638629 8.29462365591399  15.61246105919 8.02903225806442  15.3476635514019 7.87580645161294  L 1.36635514018691 0.224731182795855  Z M 18.3239875389408 18.1827956989248  C 18.3133956386293 18.8059139784948  19.0230529595016 19.204301075269  19.5844236760124 18.8876344086023  L 33.5763239875389 11.1344086021505  C 33.8411214953271 10.9913978494624  34 10.7155913978494  34 10.4193548387096  L 34 0.84784946236554  C 34 0.214516129032423  33.3009345794393 -0.173655913978337  32.7289719626168 0.13279569892461  L 18.7476635514019 7.88602150537637  C 18.4828660436137 8.02903225806442  18.3239875389408 8.30483870967743  18.3239875389408 8.6010752688173  L 18.3239875389408 18.1827956989248  Z " fill-rule="nonzero" fill="#ebecf1" stroke="none" transform="matrix(1 0 0 1 1517 41 )" />
  </g>
</svg>