<?xml version="1.0" encoding="utf-8"?>
<svg version="1.1" xmlns:xlink="http://www.w3.org/1999/xlink" width="159px" height="26px" xmlns="http://www.w3.org/2000/svg">
  <g transform="matrix(1 0 0 1 -310 -68 )">
    <path d="M 311 72  A 3 3 0 0 1 314 69 L 465 69  A 3 3 0 0 1 468 72 L 468 90  A 3 3 0 0 1 465 93 L 314 93  A 3 3 0 0 1 311 90 L 311 72  Z " fill-rule="nonzero" fill="#ffffff" stroke="none" />
    <path d="M 310.5 72  A 3.5 3.5 0 0 1 314 68.5 L 465 68.5  A 3.5 3.5 0 0 1 468.5 72 L 468.5 90  A 3.5 3.5 0 0 1 465 93.5 L 314 93.5  A 3.5 3.5 0 0 1 310.5 90 L 310.5 72  Z " stroke-width="1" stroke="#759ac6" fill="none" stroke-opacity="0.996078431372549" />
  </g>
</svg>