<?xml version="1.0" encoding="utf-8"?>
<svg version="1.1" xmlns:xlink="http://www.w3.org/1999/xlink" width="48px" height="34px" xmlns="http://www.w3.org/2000/svg">
  <g transform="matrix(1 0 0 1 -1511 -20 )">
    <path d="M 24.897995545657 0.222429906542229  C 24.3741648106904 -0.0741433021808656  23.7220489977728 -0.0741433021808656  23.1982182628062 0.222429906542229  L 0.534521158129155 13.3352024922119  C -0.0427616926503561 13.6635514018691  -0.0427616926503561 14.4791277258568  0.534521158129155 14.8074766355141  L 23.1982182628062 27.2847352024923  C 23.7220489977728 27.581308411215  24.3741648106904 27.581308411215  24.897995545657 27.2847352024923  L 45.0066815144766 15.8772585669781  C 45.5732739420935 15.5489096573209  45.7550111358574 15.9619937694705  45 16.6186915887849  L 45 32.8666666666666  C 45.7550111358574 33.5869158878504  46.1719376391982 33.9258566978191  46.9309576837417 33.9258566978191  C 47.4013363028953 33.9258566978191  48 33.5869158878504  48 32.8666666666666  L 48 14.6697819314642  C 48 14.36261682243  47.8396436525612 14.0872274143302  47.5723830734966 13.9283489096574  L 24.897995545657 0.222429906542229  Z " fill-rule="nonzero" fill="#ebecf1" stroke="none" transform="matrix(1 0 0 1 1511 20 )" />
  </g>
</svg>