<?xml version="1.0" encoding="utf-8"?>
<svg version="1.1" xmlns:xlink="http://www.w3.org/1999/xlink" width="55px" height="25px" xmlns="http://www.w3.org/2000/svg">
  <g transform="matrix(1 0 0 1 -1180 -876 )">
    <path d="M 1181 880  A 3 3 0 0 1 1184 877 L 1231 877  A 3 3 0 0 1 1234 880 L 1234 897  A 3 3 0 0 1 1231 900 L 1184 900  A 3 3 0 0 1 1181 897 L 1181 880  Z " fill-rule="nonzero" fill="#ebecf1" stroke="none" fill-opacity="0" />
    <path d="M 1180.5 880  A 3.5 3.5 0 0 1 1184 876.5 L 1231 876.5  A 3.5 3.5 0 0 1 1234.5 880 L 1234.5 897  A 3.5 3.5 0 0 1 1231 900.5 L 1184 900.5  A 3.5 3.5 0 0 1 1180.5 897 L 1180.5 880  Z " stroke-width="1" stroke="#000000" fill="none" stroke-opacity="0.149019607843137" />
  </g>
</svg>