<?xml version="1.0" encoding="utf-8"?>
<svg version="1.1" xmlns:xlink="http://www.w3.org/1999/xlink" width="163px" height="26px" xmlns="http://www.w3.org/2000/svg">
  <g transform="matrix(1 0 0 1 -961 -99 )">
    <path d="M 962 103  A 3 3 0 0 1 965 100 L 1120 100  A 3 3 0 0 1 1123 103 L 1123 121  A 3 3 0 0 1 1120 124 L 965 124  A 3 3 0 0 1 962 121 L 962 103  Z " fill-rule="nonzero" fill="#ffffff" stroke="none" />
    <path d="M 961.5 103  A 3.5 3.5 0 0 1 965 99.5 L 1120 99.5  A 3.5 3.5 0 0 1 1123.5 103 L 1123.5 121  A 3.5 3.5 0 0 1 1120 124.5 L 965 124.5  A 3.5 3.5 0 0 1 961.5 121 L 961.5 103  Z " stroke-width="1" stroke="#759ac6" fill="none" stroke-opacity="0.996078431372549" />
  </g>
</svg>