<?xml version="1.0" encoding="utf-8"?>
<svg version="1.1" xmlns:xlink="http://www.w3.org/1999/xlink" width="124px" height="107px" xmlns="http://www.w3.org/2000/svg">
  <defs>
    <filter x="746px" y="904px" width="124px" height="107px" filterUnits="userSpaceOnUse" id="filter1">
      <feOffset dx="0" dy="0" in="SourceAlpha" result="shadowOffsetInner" />
      <feGaussianBlur stdDeviation="2" in="shadowOffsetInner" result="shadowGaussian" />
      <feComposite in2="shadowGaussian" operator="atop" in="SourceAlpha" result="shadowComposite" />
      <feColorMatrix type="matrix" values="0 0 0 0 0.850980392156863  0 0 0 0 0.850980392156863  0 0 0 0 0.850980392156863  0 0 0 0.988235294117647 0  " in="shadowComposite" />
    </filter>
    <g id="widget2">
      <path d="M 750.5 912  A 3.5 3.5 0 0 1 754 908.5 L 862 908.5  A 3.5 3.5 0 0 1 865.5 912 L 865.5 1003  A 3.5 3.5 0 0 1 862 1006.5 L 754 1006.5  A 3.5 3.5 0 0 1 750.5 1003 L 750.5 912  Z " fill-rule="nonzero" fill="#ebecf1" stroke="none" fill-opacity="0" />
      <path d="M 750.5 912  A 3.5 3.5 0 0 1 754 908.5 L 862 908.5  A 3.5 3.5 0 0 1 865.5 912 L 865.5 1003  A 3.5 3.5 0 0 1 862 1006.5 L 754 1006.5  A 3.5 3.5 0 0 1 750.5 1003 L 750.5 912  Z " stroke-width="1" stroke="#ffffff" fill="none" />
    </g>
  </defs>
  <g transform="matrix(1 0 0 1 -746 -904 )">
    <use xlink:href="#widget2" filter="url(#filter1)" />
    <use xlink:href="#widget2" />
  </g>
</svg>