<?xml version="1.0" encoding="utf-8"?>
<svg version="1.1" xmlns:xlink="http://www.w3.org/1999/xlink" width="248px" height="61px" xmlns="http://www.w3.org/2000/svg">
  <g transform="matrix(1 0 0 1 -876 -182 )">
    <path d="M 877 186  A 3 3 0 0 1 880 183 L 1120 183  A 3 3 0 0 1 1123 186 L 1123 239  A 3 3 0 0 1 1120 242 L 880 242  A 3 3 0 0 1 877 239 L 877 186  Z " fill-rule="nonzero" fill="#ffffff" stroke="none" />
    <path d="M 876.5 186  A 3.5 3.5 0 0 1 880 182.5 L 1120 182.5  A 3.5 3.5 0 0 1 1123.5 186 L 1123.5 239  A 3.5 3.5 0 0 1 1120 242.5 L 880 242.5  A 3.5 3.5 0 0 1 876.5 239 L 876.5 186  Z " stroke-width="1" stroke="#759ac6" fill="none" stroke-opacity="0.996078431372549" />
  </g>
</svg>