<?xml version="1.0" encoding="utf-8"?>
<svg version="1.1" xmlns:xlink="http://www.w3.org/1999/xlink" width="100px" height="38px" xmlns="http://www.w3.org/2000/svg">
  <g transform="matrix(1 0 0 1 -190 -192 )">
    <path d="M 191 196  A 3 3 0 0 1 194 193 L 286 193  A 3 3 0 0 1 289 196 L 289 226  A 3 3 0 0 1 286 229 L 194 229  A 3 3 0 0 1 191 226 L 191 196  Z " fill-rule="nonzero" fill="#ebecf1" stroke="none" />
    <path d="M 190.5 196  A 3.5 3.5 0 0 1 194 192.5 L 286 192.5  A 3.5 3.5 0 0 1 289.5 196 L 289.5 226  A 3.5 3.5 0 0 1 286 229.5 L 194 229.5  A 3.5 3.5 0 0 1 190.5 226 L 190.5 196  Z " stroke-width="1" stroke="#4770a6" fill="none" stroke-opacity="0.996078431372549" />
  </g>
</svg>