<?xml version="1.0" encoding="utf-8"?>
<svg version="1.1" xmlns:xlink="http://www.w3.org/1999/xlink" width="56px" height="28px" xmlns="http://www.w3.org/2000/svg">
  <g transform="matrix(1 0 0 1 -1074 -10 )">
    <path d="M 1074.5 14  A 3.5 3.5 0 0 1 1078 10.5 L 1126 10.5  A 3.5 3.5 0 0 1 1129.5 14 L 1129.5 34  A 3.5 3.5 0 0 1 1126 37.5 L 1078 37.5  A 3.5 3.5 0 0 1 1074.5 34 L 1074.5 14  Z " fill-rule="nonzero" fill="#ffffff" stroke="none" />
    <path d="M 1074.5 14  A 3.5 3.5 0 0 1 1078 10.5 L 1126 10.5  A 3.5 3.5 0 0 1 1129.5 14 L 1129.5 34  A 3.5 3.5 0 0 1 1126 37.5 L 1078 37.5  A 3.5 3.5 0 0 1 1074.5 34 L 1074.5 14  Z " stroke-width="1" stroke="#dcdfe6" fill="none" />
  </g>
</svg>