<?xml version="1.0" encoding="utf-8"?>
<svg version="1.1" xmlns:xlink="http://www.w3.org/1999/xlink" width="56px" height="28px" xmlns="http://www.w3.org/2000/svg">
  <g transform="matrix(1 0 0 1 -1074 -10 )">
    <path d="M 1075 14  A 3 3 0 0 1 1078 11 L 1126 11  A 3 3 0 0 1 1129 14 L 1129 34  A 3 3 0 0 1 1126 37 L 1078 37  A 3 3 0 0 1 1075 34 L 1075 14  Z " fill-rule="nonzero" fill="#ffffff" stroke="none" fill-opacity="0.8" />
    <path d="M 1074.5 14  A 3.5 3.5 0 0 1 1078 10.5 L 1126 10.5  A 3.5 3.5 0 0 1 1129.5 14 L 1129.5 34  A 3.5 3.5 0 0 1 1126 37.5 L 1078 37.5  A 3.5 3.5 0 0 1 1074.5 34 L 1074.5 14  Z " stroke-width="1" stroke="#8098c0" fill="none" stroke-opacity="0.996078431372549" />
  </g>
</svg>