<?xml version="1.0" encoding="utf-8"?>
<svg version="1.1" xmlns:xlink="http://www.w3.org/1999/xlink" width="43px" height="40px" xmlns="http://www.w3.org/2000/svg">
  <g transform="matrix(1 0 0 1 -1592 -20 )">
    <path d="M 0 36.2637362637362  C 0 38.0872252747252  1.478125 39.5604395604395  3.30769230769241 39  L 39.6923076923076 39  C 41.521875 39.5604395604395  43 38.0872252747252  43 36.2637362637362  L 43 17  L 0 17  L 0 36.2637362637362  Z M 43 9.89010989010987  C 43 8.06662087912092  41.521875 6.59340659340663  39.6923076923076 6.59340659340663  L 38.8653846153848 6.59340659340663  L 38.8653846153848 5.76923076923078  C 38.8653846153848 5.31593406593402  38.493269230769 4.94505494505493  38.0384615384614 4.94505494505493  L 34.730769230769 4.94505494505493  C 34.2759615384614 4.94505494505493  33.9038461538462 5.31593406593402  33.9038461538462 5.76923076923078  L 33.9038461538462 6.59340659340663  L 31.0096153846152 6.59340659340663  L 31.0096153846152 3.29670329670323  C 31.0096153846152 1.4835164835165  29.5211538461538 0  27.7019230769228 0  L 15.2980769230772 0  C 13.4788461538462 0  11.9903846153848 1.4835164835165  11.9903846153848 3.29670329670323  L 11.9903846153848 6.59340659340663  L 9.0961538461538 6.59340659340663  L 9.0961538461538 5.76923076923078  C 9.0961538461538 5.31593406593402  8.72403846153861 4.94505494505493  8.26923076923102 4.94505494505493  L 4.96153846153861 4.94505494505493  C 4.50673076923102 4.94505494505493  4.13461538461518 5.31593406593402  4.13461538461518 5.76923076923078  L 4.13461538461518 6.59340659340663  L 3.30769230769241 6.59340659340663  C 1.478125 6.59340659340663  0 8.06662087912092  0 9.89010989010987  L 0 14  L 43 14  L 43 9.89010989010987  Z M 28.1153846153848 3.70879120879116  L 28.1153846153848 7  L 14.8846153846152 7  L 14.8846153846152 3.70879120879116  C 14.8846153846152 3.25549450549456  15.256730769231 2.88461538461531  15.7115384615386 3  L 27.2884615384614 3  C 27.743269230769 2.88461538461531  28.1153846153848 3.25549450549456  28.1153846153848 3.70879120879116  Z " fill-rule="nonzero" fill="#ebecf1" stroke="none" transform="matrix(1 0 0 1 1592 20 )" />
  </g>
</svg>