<?xml version="1.0" encoding="utf-8"?>
<svg version="1.1" xmlns:xlink="http://www.w3.org/1999/xlink" width="690px" height="535px" xmlns="http://www.w3.org/2000/svg">
  <defs>
    <filter x="291px" y="111px" width="690px" height="535px" filterUnits="userSpaceOnUse" id="filter5">
      <feOffset dx="1" dy="1" in="SourceAlpha" result="shadowOffsetInner" />
      <feGaussianBlur stdDeviation="2.5" in="shadowOffsetInner" result="shadowGaussian" />
      <feComposite in2="shadowGaussian" operator="atop" in="SourceAlpha" result="shadowComposite" />
      <feColorMatrix type="matrix" values="0 0 0 0 0.525490196078431  0 0 0 0 0.525490196078431  0 0 0 0 0.525490196078431  0 0 0 0.349019607843137 0  " in="shadowComposite" />
    </filter>
    <g id="widget6">
      <path d="M 303.436363636364 633.154589371981  C 303.436363636364 633.154589371981  303.436363636364 215.607476635514  303.436363636364 215.607476635514  C 303.436363636364 215.607476635514  295.638629283488 210.591900311525  295.638629283488 210.591900311525  C 295.638629283488 210.591900311525  303.436363636364 195.607476635514  303.436363636364 195.607476635514  C 303.436363636364 195.607476635514  303.436363636364 121  303.436363636364 121  C 303.436363636364 117.686291501015  306.122655137379 115  309.436363636364 115  C 309.436363636364 115  968.999999999999 115  968.999999999999 115  C 972.313708498984 115  974.999999999999 117.686291501015  974.999999999999 121  C 974.999999999999 121  974.999999999999 633.154589371981  974.999999999999 633.154589371981  C 974.999999999999 636.468297870965  972.313708498984 639.154589371981  968.999999999999 639.154589371981  C 968.999999999999 639.154589371981  309.436363636364 639.154589371981  309.436363636364 639.154589371981  C 306.122655137379 639.154589371981  303.436363636364 636.468297870965  303.436363636364 633.154589371981  Z " fill-rule="nonzero" fill="#ffffff" stroke="none" />
    </g>
  </defs>
  <g transform="matrix(1 0 0 1 -291 -111 )">
    <use xlink:href="#widget6" filter="url(#filter5)" />
    <use xlink:href="#widget6" />
  </g>
</svg>