<?xml version="1.0" encoding="utf-8"?>
<svg version="1.1" xmlns:xlink="http://www.w3.org/1999/xlink" width="158px" height="26px" xmlns="http://www.w3.org/2000/svg">
  <g transform="matrix(1 0 0 1 -366 -315 )">
    <path d="M 367 319  A 3 3 0 0 1 370 316 L 520 316  A 3 3 0 0 1 523 319 L 523 337  A 3 3 0 0 1 520 340 L 370 340  A 3 3 0 0 1 367 337 L 367 319  Z " fill-rule="nonzero" fill="#ffffff" stroke="none" />
    <path d="M 366.5 319  A 3.5 3.5 0 0 1 370 315.5 L 520 315.5  A 3.5 3.5 0 0 1 523.5 319 L 523.5 337  A 3.5 3.5 0 0 1 520 340.5 L 370 340.5  A 3.5 3.5 0 0 1 366.5 337 L 366.5 319  Z " stroke-width="1" stroke="#759ac6" fill="none" stroke-opacity="0.996078431372549" />
  </g>
</svg>