<?xml version="1.0" encoding="utf-8"?>
<svg version="1.1" xmlns:xlink="http://www.w3.org/1999/xlink" width="43px" height="40px" xmlns="http://www.w3.org/2000/svg">
  <g transform="matrix(1 0 0 1 -1625 -20 )">
    <path d="M 43 5.15109890109865  C 43 4.35782967032992  42.3487980769228 3.70879120879116  41.5528846153848 3.70879120879116  L 34.730769230769 3.70879120879116  L 34.730769230769 1.6483516483517  C 34.730769230769 0.741758241758492  33.9865384615386 0  33.0769230769228 0  L 9.92307692307722 0  C 9.01346153846139 0  8.26923076923102 0.741758241758492  8.26923076923102 1.6483516483517  L 8.26923076923102 3.70879120879116  L 1.44711538461518 3.70879120879116  C 0.651201923077224 3.70879120879116  0 4.35782967032992  0 5.15109890109865  C 0 9.40590659340679  0.80625 11.9505494505496  2.33605769230759 14.4642857142857  C 3.74182692307722 16.7719780219782  5.7367788461538 18.193681318681  8.1555288461538 18.6160714285714  C 8.44495192307722 18.6675824175823  8.68269230769241 18.8530219780218  8.79639423076898 19.1208791208789  C 9.43725961538482 20.7074175824177  10.884375 22.7060439560442  14.0783653846152 24.4986263736265  C 16.1663461538462 25.6730769230769  17.8925480769228 26.3839285714286  19.422355769231 26.7239010989013  C 19.7944711538462 26.8063186813184  20.0632211538462 27.1462912087912  20.0632211538462 27.5274725274728  L 20.0632211538462 35.8516483516483  C 20.0632211538462 36.3049450549449  19.691105769231 36.6758241758238  19.2362980769228 36.6758241758238  L 12.4555288461538 36.6758241758238  C 11.6802884615386 36.6758241758238  11.0084134615386 37.2733516483517  10.9670673076924 38.0460164835163  C 10.9257211538462 38.8701923076925  11.5872596153848 39.5604395604395  12.4141826923076 39  L 30.565144230769 39  C 31.3403846153848 39.5604395604395  32.0122596153848 38.9629120879122  32.053605769231 38.190247252747  C 32.0949519230772 37.3660714285714  31.4334134615386 36.6758241758238  30.6064903846152 36.6758241758238  L 23.784375 36.6758241758238  C 23.3295673076924 36.6758241758238  22.9574519230772 36.3049450549449  22.9574519230772 35.8516483516483  L 22.9574519230772 27.5377747252748  C 22.9574519230772 27.1565934065932  23.2262019230772 26.8166208791211  23.5983173076924 26.7342032967034  C 25.1177884615386 26.3942307692306  26.8543269230772 25.6730769230769  28.9423076923076 24.5089285714286  C 32.1362980769228 22.7163461538463  33.5834134615386 20.7177197802197  34.2242788461538 19.131181318681  C 34.337980769231 18.8633241758238  34.5757211538462 18.6675824175823  34.865144230769 18.6263736263735  C 37.283894230769 18.2039835164837  39.2788461538462 16.7822802197803  40.6846153846152 14.4745879120878  C 42.19375 11.9505494505496  43 9.40590659340679  43 5.15109890109865  Z M 8.26923076923102 7.41758241758232  L 8.26923076923102 15.1030219780218  C 8.26923076923102 15.3914835164837  7.97980769230759 15.5975274725272  7.71105769230759 15.4945054945054  C 6.38798076923102 14.989697802198  5.31298076923102 13.9800824175823  4.54807692307722 12.5171703296701  C 3.94855769230759 11.3839285714286  3.24567307692278 10.3125  2.98725961538482 7.48969780219795  C 2.94591346153861 7.00549450549456  3.32836538461518 6.59340659340679  3.81418269230759 6.59340659340679  L 7.44230769230759 6.59340659340679  C 7.89711538461518 6.59340659340679  8.26923076923102 6.96428571428571  8.26923076923102 7.41758241758232  Z M 40.0127403846152 7.48969780219795  C 39.7543269230772 10.3125  39.041105769231 11.3839285714286  38.4519230769228 12.5171703296701  C 37.687019230769 13.9800824175823  36.612019230769 14.989697802198  35.2889423076924 15.4945054945054  C 35.0201923076924 15.5975274725272  34.730769230769 15.3914835164837  34.730769230769 15.1030219780218  L 34.730769230769 7.41758241758232  C 34.730769230769 6.96428571428571  35.1028846153848 6.59340659340679  35.5576923076924 6.59340659340679  L 39.1858173076924 6.59340659340679  C 39.6716346153848 6.59340659340679  40.0540865384614 7.00549450549456  40.0127403846152 7.48969780219795  Z " fill-rule="nonzero" fill="#ebecf1" stroke="none" transform="matrix(1 0 0 1 1625 20 )" />
  </g>
</svg>